<svg viewBox="0 0 1346 246" fill="none" xmlns="http://www.w3.org/2000/svg">
    <rect x="1" y="91.9688" width="31.3013" height="30.3231" stroke="#E6E6E6" stroke-width="0.978166"/>
    <rect x="62.6245" y="91.9688" width="30.3231" height="30.3231" stroke="#E6E6E6" stroke-width="0.978166"/>
    <rect x="92.9478" y="91.9688" width="31.3013" height="30.3231" stroke="#E6E6E6" stroke-width="0.978166"/>
    <rect x="124.249" y="91.9688" width="29.345" height="30.3231" stroke="#E6E6E6" stroke-width="0.978166"/>
    <rect x="184.895" y="91.9688" width="30.3231" height="30.3231" stroke="#E6E6E6" stroke-width="0.978166"/>
    <rect x="215.218" y="91.9688" width="30.3231" height="30.3231" stroke="#E6E6E6" stroke-width="0.978166"/>
    <rect x="276.843" y="91.9688" width="29.345" height="30.3231" stroke="#E6E6E6" stroke-width="0.978166"/>
    <rect x="306.188" y="91.9688" width="31.3013" height="30.3231" stroke="#E6E6E6" stroke-width="0.978166"/>
    <rect x="367.812" y="91.9688" width="30.3231" height="30.3231" stroke="#E6E6E6" stroke-width="0.978166"/>
    <rect x="398.135" y="91.9688" width="31.3013" height="30.3231" stroke="#E6E6E6" stroke-width="0.978166"/>
    <rect x="429.437" y="91.9688" width="29.345" height="30.3231" stroke="#E6E6E6" stroke-width="0.978166"/>
    <rect x="458.782" y="91.9688" width="31.3013" height="30.3231" stroke="#E6E6E6" stroke-width="0.978166"/>
    <rect x="490.083" y="91.9688" width="30.3231" height="30.3231" stroke="#E6E6E6" stroke-width="0.978166"/>
    <rect x="520.406" y="91.9688" width="30.3231" height="30.3231" stroke="#E6E6E6" stroke-width="0.978166"/>
    <rect x="550.729" y="91.9688" width="31.3013" height="30.3231" stroke="#E6E6E6" stroke-width="0.978166"/>
    <rect x="582.031" y="91.9688" width="29.345" height="30.3231" stroke="#E6E6E6" stroke-width="0.978166"/>
    <rect x="611.375" y="91.9688" width="31.3013" height="30.3231" stroke="#E6E6E6" stroke-width="0.978166"/>
    <rect x="673" y="91.9688" width="30.3231" height="30.3231" stroke="#E6E6E6" stroke-width="0.978166"/>
    <rect x="703.323" y="91.9688" width="31.3013" height="30.3231" stroke="#E6E6E6" stroke-width="0.978166"/>
    <rect x="1" y="61.6445" width="31.3013" height="30.3231" stroke="#E6E6E6" stroke-width="0.978166"/>
    <rect x="1" y="31.3203" width="31.3013" height="30.3231" stroke="#E6E6E6" stroke-width="0.978166"/>
    <rect x="1" y="1" width="31.3013" height="30.3231" stroke="#E6E6E6" stroke-width="0.978166"/>
    <rect x="62.6245" y="61.6445" width="30.3231" height="30.3231" stroke="#E6E6E6" stroke-width="0.978166"/>
    <rect x="62.6245" y="31.3203" width="30.3231" height="30.3231" stroke="#E6E6E6" stroke-width="0.978166"/>
    <rect x="62.6245" y="1" width="30.3231" height="30.3231" stroke="#E6E6E6" stroke-width="0.978166"/>
    <rect x="92.9478" y="61.6445" width="31.3013" height="30.3231" stroke="#E6E6E6" stroke-width="0.978166"/>
    <rect x="92.9478" y="31.3203" width="31.3013" height="30.3231" stroke="#E6E6E6" stroke-width="0.978166"/>
    <rect x="92.9478" y="1" width="31.3013" height="30.3231" stroke="#E6E6E6" stroke-width="0.978166"/>
    <rect x="124.249" y="61.6445" width="29.345" height="30.3231" stroke="#E6E6E6" stroke-width="0.978166"/>
    <rect x="124.249" y="31.3203" width="29.345" height="30.3231" stroke="#E6E6E6" stroke-width="0.978166"/>
    <rect x="124.249" y="1" width="29.345" height="30.3231" stroke="#E6E6E6" stroke-width="0.978166"/>
    <rect x="184.895" y="61.6445" width="30.3231" height="30.3231" stroke="#E6E6E6" stroke-width="0.978166"/>
    <rect x="184.895" y="31.3203" width="30.3231" height="30.3231" stroke="#E6E6E6" stroke-width="0.978166"/>
    <rect x="184.895" y="1" width="30.3231" height="30.3231" stroke="#E6E6E6" stroke-width="0.978166"/>
    <rect x="215.218" y="61.6445" width="30.3231" height="30.3231" stroke="#E6E6E6" stroke-width="0.978166"/>
    <rect x="215.218" y="31.3203" width="30.3231" height="30.3231" stroke="#E6E6E6" stroke-width="0.978166"/>
    <rect x="215.218" y="1" width="30.3231" height="30.3231" stroke="#E6E6E6" stroke-width="0.978166"/>
    <rect x="276.843" y="61.6445" width="29.345" height="30.3231" stroke="#E6E6E6" stroke-width="0.978166"/>
    <rect x="276.843" y="31.3203" width="29.345" height="30.3231" stroke="#E6E6E6" stroke-width="0.978166"/>
    <rect x="276.843" y="1" width="29.345" height="30.3231" stroke="#E6E6E6" stroke-width="0.978166"/>
    <rect x="306.188" y="61.6445" width="31.3013" height="30.3231" stroke="#E6E6E6" stroke-width="0.978166"/>
    <rect x="306.188" y="1" width="31.3013" height="30.3231" stroke="#E6E6E6" stroke-width="0.978166"/>
    <rect x="367.812" y="61.6445" width="30.3231" height="30.3231" stroke="#E6E6E6" stroke-width="0.978166"/>
    <rect x="367.812" y="31.3203" width="30.3231" height="30.3231" stroke="#E6E6E6" stroke-width="0.978166"/>
    <rect x="367.812" y="1" width="30.3231" height="30.3231" stroke="#E6E6E6" stroke-width="0.978166"/>
    <rect x="398.135" y="61.6445" width="31.3013" height="30.3231" stroke="#E6E6E6" stroke-width="0.978166"/>
    <rect x="398.135" y="31.3203" width="31.3013" height="30.3231" stroke="#E6E6E6" stroke-width="0.978166"/>
    <rect x="398.135" y="1" width="31.3013" height="30.3231" stroke="#E6E6E6" stroke-width="0.978166"/>
    <rect x="429.437" y="61.6445" width="29.345" height="30.3231" stroke="#E6E6E6" stroke-width="0.978166"/>
    <rect x="429.437" y="31.3203" width="29.345" height="30.3231" stroke="#E6E6E6" stroke-width="0.978166"/>
    <rect x="429.437" y="1" width="29.345" height="30.3231" stroke="#E6E6E6" stroke-width="0.978166"/>
    <rect x="458.782" y="61.6445" width="31.3013" height="30.3231" stroke="#E6E6E6" stroke-width="0.978166"/>
    <rect x="458.782" y="31.3203" width="31.3013" height="30.3231" stroke="#E6E6E6" stroke-width="0.978166"/>
    <rect x="458.782" y="1" width="31.3013" height="30.3231" stroke="#E6E6E6" stroke-width="0.978166"/>
    <rect x="490.083" y="61.6445" width="30.3231" height="30.3231" stroke="#E6E6E6" stroke-width="0.978166"/>
    <rect x="490.083" y="31.3203" width="30.3231" height="30.3231" stroke="#E6E6E6" stroke-width="0.978166"/>
    <rect x="490.083" y="1" width="30.3231" height="30.3231" stroke="#E6E6E6" stroke-width="0.978166"/>
    <rect x="520.406" y="61.6445" width="30.3231" height="30.3231" stroke="#E6E6E6" stroke-width="0.978166"/>
    <rect x="520.406" y="31.3203" width="30.3231" height="30.3231" stroke="#E6E6E6" stroke-width="0.978166"/>
    <rect x="520.406" y="1" width="30.3231" height="30.3231" stroke="#E6E6E6" stroke-width="0.978166"/>
    <rect x="550.729" y="61.6445" width="31.3013" height="30.3231" stroke="#E6E6E6" stroke-width="0.978166"/>
    <rect x="550.729" y="31.3203" width="31.3013" height="30.3231" stroke="#E6E6E6" stroke-width="0.978166"/>
    <rect x="550.729" y="1" width="31.3013" height="30.3231" stroke="#E6E6E6" stroke-width="0.978166"/>
    <rect x="582.031" y="61.6445" width="29.345" height="30.3231" stroke="#E6E6E6" stroke-width="0.978166"/>
    <rect x="582.031" y="31.3203" width="29.345" height="30.3231" stroke="#E6E6E6" stroke-width="0.978166"/>
    <rect x="582.031" y="1" width="29.345" height="30.3231" stroke="#E6E6E6" stroke-width="0.978166"/>
    <rect x="611.375" y="61.6445" width="31.3013" height="30.3231" stroke="#E6E6E6" stroke-width="0.978166"/>
    <rect x="611.375" y="31.3203" width="31.3013" height="30.3231" stroke="#E6E6E6" stroke-width="0.978166"/>
    <rect x="611.375" y="1" width="31.3013" height="30.3231" stroke="#E6E6E6" stroke-width="0.978166"/>
    <rect x="673" y="61.6445" width="30.3231" height="30.3231" stroke="#E6E6E6" stroke-width="0.978166"/>
    <rect x="673" y="31.3203" width="30.3231" height="30.3231" stroke="#E6E6E6" stroke-width="0.978166"/>
    <rect x="673" y="1" width="30.3231" height="30.3231" stroke="#E6E6E6" stroke-width="0.978166"/>
    <rect x="703.323" y="61.6445" width="31.3013" height="30.3231" stroke="#E6E6E6" stroke-width="0.978166"/>
    <rect x="703.323" y="1" width="31.3013" height="30.3231" stroke="#E6E6E6" stroke-width="0.978166"/>
    <rect x="1" y="122.289" width="31.3013" height="31.3013" stroke="#E6E6E6" stroke-width="0.978166"/>
    <rect x="32.3013" y="122.289" width="30.3231" height="31.3013" stroke="#E6E6E6" stroke-width="0.978166"/>
    <rect x="62.6245" y="122.289" width="30.3231" height="31.3013" stroke="#E6E6E6" stroke-width="0.978166"/>
    <rect x="92.9478" y="122.289" width="31.3013" height="31.3013" stroke="#E6E6E6" stroke-width="0.978166"/>
    <rect x="124.249" y="122.289" width="29.345" height="31.3013" stroke="#E6E6E6" stroke-width="0.978166"/>
    <rect x="153.594" y="122.289" width="31.3013" height="31.3013" stroke="#E6E6E6" stroke-width="0.978166"/>
    <rect x="215.218" y="122.289" width="30.3231" height="31.3013" stroke="#E6E6E6" stroke-width="0.978166"/>
    <rect x="245.542" y="122.289" width="31.3013" height="31.3013" stroke="#E6E6E6" stroke-width="0.978166"/>
    <rect x="276.843" y="122.289" width="29.345" height="31.3013" stroke="#E6E6E6" stroke-width="0.978166"/>
    <rect x="306.188" y="122.289" width="31.3013" height="31.3013" stroke="#E6E6E6" stroke-width="0.978166"/>
    <rect x="337.489" y="122.289" width="30.3231" height="31.3013" stroke="#E6E6E6" stroke-width="0.978166"/>
    <rect x="367.812" y="122.289" width="30.3231" height="31.3013" stroke="#E6E6E6" stroke-width="0.978166"/>
    <rect x="398.135" y="122.289" width="31.3013" height="31.3013" stroke="#E6E6E6" stroke-width="0.978166"/>
    <rect x="429.437" y="122.289" width="29.345" height="31.3013" stroke="#E6E6E6" stroke-width="0.978166"/>
    <rect x="490.083" y="122.289" width="30.3231" height="31.3013" stroke="#E6E6E6" stroke-width="0.978166"/>
    <rect x="520.406" y="122.289" width="30.3231" height="31.3013" stroke="#E6E6E6" stroke-width="0.978166"/>
    <rect x="550.729" y="122.289" width="31.3013" height="31.3013" stroke="#E6E6E6" stroke-width="0.978166"/>
    <rect x="582.031" y="122.289" width="29.345" height="31.3013" stroke="#E6E6E6" stroke-width="0.978166"/>
    <rect x="611.375" y="122.289" width="31.3013" height="31.3013" stroke="#E6E6E6" stroke-width="0.978166"/>
    <rect x="642.677" y="122.289" width="30.3231" height="31.3013" stroke="#E6E6E6" stroke-width="0.978166"/>
    <rect x="673" y="122.289" width="30.3231" height="31.3013" stroke="#E6E6E6" stroke-width="0.978166"/>
    <rect x="1" y="153.594" width="31.3013" height="29.345" stroke="#E6E6E6" stroke-width="0.978166"/>
    <rect x="62.6245" y="153.594" width="30.3231" height="29.345" stroke="#E6E6E6" stroke-width="0.978166"/>
    <rect x="92.9478" y="153.594" width="31.3013" height="29.345" stroke="#E6E6E6" stroke-width="0.978166"/>
    <rect x="124.249" y="153.594" width="29.345" height="29.345" stroke="#E6E6E6" stroke-width="0.978166"/>
    <rect x="153.594" y="153.594" width="31.3013" height="29.345" stroke="#E6E6E6" stroke-width="0.978166"/>
    <rect x="215.218" y="153.594" width="30.3231" height="29.345" stroke="#E6E6E6" stroke-width="0.978166"/>
    <rect x="245.542" y="153.594" width="31.3013" height="29.345" stroke="#E6E6E6" stroke-width="0.978166"/>
    <rect x="276.843" y="153.594" width="29.345" height="29.345" stroke="#E6E6E6" stroke-width="0.978166"/>
    <rect x="337.489" y="153.594" width="30.3231" height="29.345" stroke="#E6E6E6" stroke-width="0.978166"/>
    <rect x="367.812" y="153.594" width="30.3231" height="29.345" stroke="#E6E6E6" stroke-width="0.978166"/>
    <rect x="398.135" y="153.594" width="31.3013" height="29.345" stroke="#E6E6E6" stroke-width="0.978166"/>
    <rect x="429.437" y="153.594" width="29.345" height="29.345" stroke="#E6E6E6" stroke-width="0.978166"/>
    <rect x="458.782" y="153.594" width="31.3013" height="29.345" stroke="#E6E6E6" stroke-width="0.978166"/>
    <rect x="490.083" y="153.594" width="30.3231" height="29.345" stroke="#E6E6E6" stroke-width="0.978166"/>
    <rect x="520.406" y="153.594" width="30.3231" height="29.345" stroke="#E6E6E6" stroke-width="0.978166"/>
    <rect x="550.729" y="153.594" width="31.3013" height="29.345" stroke="#E6E6E6" stroke-width="0.978166"/>
    <rect x="582.031" y="153.594" width="29.345" height="29.345" stroke="#E6E6E6" stroke-width="0.978166"/>
    <rect x="611.375" y="153.594" width="31.3013" height="29.345" stroke="#E6E6E6" stroke-width="0.978166"/>
    <rect x="642.677" y="153.594" width="30.3231" height="29.345" stroke="#E6E6E6" stroke-width="0.978166"/>
    <rect x="673" y="153.594" width="30.3231" height="29.345" stroke="#E6E6E6" stroke-width="0.978166"/>
    <rect x="703.323" y="153.594" width="31.3013" height="29.345" stroke="#E6E6E6" stroke-width="0.978166"/>
    <rect x="1" y="182.938" width="31.3013" height="31.3013" stroke="#E6E6E6" stroke-width="0.978166"/>
    <rect x="32.3013" y="182.938" width="30.3231" height="31.3013" stroke="#E6E6E6" stroke-width="0.978166"/>
    <rect x="62.6245" y="182.938" width="30.3231" height="31.3013" stroke="#E6E6E6" stroke-width="0.978166"/>
    <rect x="124.249" y="182.938" width="29.345" height="31.3013" stroke="#E6E6E6" stroke-width="0.978166"/>
    <rect x="153.594" y="182.938" width="31.3013" height="31.3013" stroke="#E6E6E6" stroke-width="0.978166"/>
    <rect x="184.895" y="182.938" width="30.3231" height="31.3013" stroke="#E6E6E6" stroke-width="0.978166"/>
    <rect x="215.218" y="182.938" width="30.3231" height="31.3013" stroke="#E6E6E6" stroke-width="0.978166"/>
    <rect x="245.542" y="182.938" width="31.3013" height="31.3013" stroke="#E6E6E6" stroke-width="0.978166"/>
    <rect x="276.843" y="182.938" width="29.345" height="31.3013" stroke="#E6E6E6" stroke-width="0.978166"/>
    <rect x="306.188" y="182.938" width="31.3013" height="31.3013" stroke="#E6E6E6" stroke-width="0.978166"/>
    <rect x="337.489" y="182.938" width="30.3231" height="31.3013" stroke="#E6E6E6" stroke-width="0.978166"/>
    <rect x="398.135" y="182.938" width="31.3013" height="31.3013" stroke="#E6E6E6" stroke-width="0.978166"/>
    <rect x="429.437" y="182.938" width="29.345" height="31.3013" stroke="#E6E6E6" stroke-width="0.978166"/>
    <rect x="458.782" y="182.938" width="31.3013" height="31.3013" stroke="#E6E6E6" stroke-width="0.978166"/>
    <rect x="490.083" y="182.938" width="30.3231" height="31.3013" stroke="#E6E6E6" stroke-width="0.978166"/>
    <rect x="520.406" y="182.938" width="30.3231" height="31.3013" stroke="#E6E6E6" stroke-width="0.978166"/>
    <rect x="582.031" y="182.938" width="29.345" height="31.3013" stroke="#E6E6E6" stroke-width="0.978166"/>
    <rect x="611.375" y="182.938" width="31.3013" height="31.3013" stroke="#E6E6E6" stroke-width="0.978166"/>
    <rect x="642.677" y="182.938" width="30.3231" height="31.3013" stroke="#E6E6E6" stroke-width="0.978166"/>
    <rect x="703.323" y="182.938" width="31.3013" height="31.3013" stroke="#E6E6E6" stroke-width="0.978166"/>
    <rect x="1" y="214.238" width="31.3013" height="30.3231" stroke="#E6E6E6" stroke-width="0.978166"/>
    <rect x="32.3013" y="214.238" width="30.3231" height="30.3231" stroke="#E6E6E6" stroke-width="0.978166"/>
    <rect x="32.3013" y="91.9688" width="30.3231" height="30.3231" stroke="#E6E6E6" stroke-width="0.978166"/>
    <rect x="153.594" y="91.9688" width="31.3013" height="30.3231" stroke="#E6E6E6" stroke-width="0.978166"/>
    <rect x="245.542" y="91.9688" width="31.3013" height="30.3231" stroke="#E6E6E6" stroke-width="0.978166"/>
    <rect x="337.489" y="91.9688" width="30.3231" height="30.3231" stroke="#E6E6E6" stroke-width="0.978166"/>
    <rect x="642.677" y="91.9688" width="30.3231" height="30.3231" stroke="#E6E6E6" stroke-width="0.978166"/>
    <rect x="62.6245" y="214.238" width="30.3231" height="30.3231" stroke="#E6E6E6" stroke-width="0.978166"/>
    <rect x="92.9478" y="214.238" width="31.3013" height="30.3231" stroke="#E6E6E6" stroke-width="0.978166"/>
    <rect x="153.594" y="214.238" width="31.3013" height="30.3231" stroke="#E6E6E6" stroke-width="0.978166"/>
    <rect x="215.218" y="214.238" width="30.3231" height="30.3231" stroke="#E6E6E6" stroke-width="0.978166"/>
    <rect x="245.542" y="214.238" width="31.3013" height="30.3231" stroke="#E6E6E6" stroke-width="0.978166"/>
    <rect x="276.843" y="214.238" width="29.345" height="30.3231" stroke="#E6E6E6" stroke-width="0.978166"/>
    <rect x="306.188" y="214.238" width="31.3013" height="30.3231" stroke="#E6E6E6" stroke-width="0.978166"/>
    <rect x="367.812" y="214.238" width="30.3231" height="30.3231" stroke="#E6E6E6" stroke-width="0.978166"/>
    <rect x="429.437" y="214.238" width="29.345" height="30.3231" stroke="#E6E6E6" stroke-width="0.978166"/>
    <rect x="734.625" y="91.9688" width="31.3013" height="30.3231" stroke="#E6E6E6" stroke-width="0.978166"/>
    <rect x="796.249" y="91.9688" width="30.3231" height="30.3231" stroke="#E6E6E6" stroke-width="0.978166"/>
    <rect x="826.572" y="91.9688" width="31.3013" height="30.3231" stroke="#E6E6E6" stroke-width="0.978166"/>
    <rect x="857.874" y="91.9688" width="29.345" height="30.3231" stroke="#E6E6E6" stroke-width="0.978166"/>
    <rect x="918.52" y="91.9688" width="30.3231" height="30.3231" stroke="#E6E6E6" stroke-width="0.978166"/>
    <rect x="948.843" y="91.9688" width="30.3231" height="30.3231" stroke="#E6E6E6" stroke-width="0.978166"/>
    <rect x="1010.47" y="91.9688" width="29.345" height="30.3231" stroke="#E6E6E6" stroke-width="0.978166"/>
    <rect x="1039.81" y="91.9688" width="31.3013" height="30.3231" stroke="#E6E6E6" stroke-width="0.978166"/>
    <rect x="1101.44" y="91.9688" width="30.3231" height="30.3231" stroke="#E6E6E6" stroke-width="0.978166"/>
    <rect x="1131.76" y="91.9688" width="31.3013" height="30.3231" stroke="#E6E6E6" stroke-width="0.978166"/>
    <rect x="1163.06" y="91.9688" width="29.345" height="30.3231" stroke="#E6E6E6" stroke-width="0.978166"/>
    <rect x="1192.41" y="91.9688" width="31.3013" height="30.3231" stroke="#E6E6E6" stroke-width="0.978166"/>
    <rect x="1223.71" y="91.9688" width="30.3231" height="30.3231" stroke="#E6E6E6" stroke-width="0.978166"/>
    <rect x="1254.03" y="91.9688" width="30.3231" height="30.3231" stroke="#E6E6E6" stroke-width="0.978166"/>
    <rect x="1284.35" y="91.9688" width="31.3013" height="30.3231" stroke="#E6E6E6" stroke-width="0.978166"/>
    <rect x="458.782" y="214.238" width="31.3013" height="30.3231" stroke="#E6E6E6" stroke-width="0.978166"/>
    <rect x="490.083" y="214.238" width="30.3231" height="30.3231" stroke="#E6E6E6" stroke-width="0.978166"/>
    <rect x="520.406" y="214.238" width="30.3231" height="30.3231" stroke="#E6E6E6" stroke-width="0.978166"/>
    <rect x="550.729" y="214.238" width="31.3013" height="30.3231" stroke="#E6E6E6" stroke-width="0.978166"/>
    <rect x="611.375" y="214.238" width="31.3013" height="30.3231" stroke="#E6E6E6" stroke-width="0.978166"/>
    <rect x="673" y="214.238" width="30.3231" height="30.3231" stroke="#E6E6E6" stroke-width="0.978166"/>
    <rect x="703.323" y="214.238" width="31.3013" height="30.3231" stroke="#E6E6E6" stroke-width="0.978166"/>
    <rect x="32.3013" y="61.6445" width="30.3231" height="30.3231" stroke="#E6E6E6" stroke-width="0.978166"/>
    <rect x="32.3013" y="31.3203" width="30.3231" height="30.3231" stroke="#E6E6E6" stroke-width="0.978166"/>
    <rect x="32.3013" y="1" width="30.3231" height="30.3231" stroke="#E6E6E6" stroke-width="0.978166"/>
    <rect x="153.594" y="61.6445" width="31.3013" height="30.3231" stroke="#E6E6E6" stroke-width="0.978166"/>
    <rect x="153.594" y="31.3203" width="31.3013" height="30.3231" stroke="#E6E6E6" stroke-width="0.978166"/>
    <rect x="153.594" y="1" width="31.3013" height="30.3231" stroke="#E6E6E6" stroke-width="0.978166"/>
    <rect x="245.542" y="61.6445" width="31.3013" height="30.3231" stroke="#E6E6E6" stroke-width="0.978166"/>
    <rect x="245.542" y="31.3203" width="31.3013" height="30.3231" stroke="#E6E6E6" stroke-width="0.978166"/>
    <rect x="245.542" y="1" width="31.3013" height="30.3231" stroke="#E6E6E6" stroke-width="0.978166"/>
    <rect x="337.489" y="61.6445" width="30.3231" height="30.3231" stroke="#E6E6E6" stroke-width="0.978166"/>
    <rect x="337.489" y="31.3203" width="30.3231" height="30.3231" stroke="#E6E6E6" stroke-width="0.978166"/>
    <rect x="337.489" y="1" width="30.3231" height="30.3231" stroke="#E6E6E6" stroke-width="0.978166"/>
    <rect x="642.677" y="61.6445" width="30.3231" height="30.3231" stroke="#E6E6E6" stroke-width="0.978166"/>
    <rect x="642.677" y="31.3203" width="30.3231" height="30.3231" stroke="#E6E6E6" stroke-width="0.978166"/>
    <rect x="642.677" y="1" width="30.3231" height="30.3231" stroke="#E6E6E6" stroke-width="0.978166"/>
    <rect x="184.895" y="153.594" width="30.3231" height="29.345" stroke="#E6E6E6" stroke-width="0.978166"/>
    <rect x="306.188" y="153.594" width="31.3013" height="29.345" stroke="#E6E6E6" stroke-width="0.978166"/>
    <rect x="92.9478" y="182.938" width="31.3013" height="31.3013" stroke="#E6E6E6" stroke-width="0.978166"/>
    <rect x="367.812" y="182.938" width="30.3231" height="31.3013" stroke="#E6E6E6" stroke-width="0.978166"/>
    <rect x="550.729" y="182.938" width="31.3013" height="31.3013" stroke="#E6E6E6" stroke-width="0.978166"/>
    <rect x="673" y="182.938" width="30.3231" height="31.3013" stroke="#E6E6E6" stroke-width="0.978166"/>
    <rect x="184.895" y="214.238" width="30.3231" height="30.3231" stroke="#E6E6E6" stroke-width="0.978166"/>
    <rect x="398.135" y="214.238" width="31.3013" height="30.3231" stroke="#E6E6E6" stroke-width="0.978166"/>
    <rect x="582.031" y="214.238" width="29.345" height="30.3231" stroke="#E6E6E6" stroke-width="0.978166"/>
    <rect x="734.625" y="61.6445" width="31.3013" height="30.3231" stroke="#E6E6E6" stroke-width="0.978166"/>
    <rect x="734.625" y="31.3203" width="31.3013" height="30.3231" stroke="#E6E6E6" stroke-width="0.978166"/>
    <rect x="734.625" y="1" width="31.3013" height="30.3231" stroke="#E6E6E6" stroke-width="0.978166"/>
    <rect x="796.249" y="61.6445" width="30.3231" height="30.3231" stroke="#E6E6E6" stroke-width="0.978166"/>
    <rect x="796.249" y="31.3203" width="30.3231" height="30.3231" stroke="#E6E6E6" stroke-width="0.978166"/>
    <rect x="796.249" y="1" width="30.3231" height="30.3231" stroke="#E6E6E6" stroke-width="0.978166"/>
    <rect x="826.572" y="61.6445" width="31.3013" height="30.3231" stroke="#E6E6E6" stroke-width="0.978166"/>
    <rect x="826.572" y="31.3203" width="31.3013" height="30.3231" stroke="#E6E6E6" stroke-width="0.978166"/>
    <rect x="826.572" y="1" width="31.3013" height="30.3231" stroke="#E6E6E6" stroke-width="0.978166"/>
    <rect x="857.874" y="61.6445" width="29.345" height="30.3231" stroke="#E6E6E6" stroke-width="0.978166"/>
    <rect x="857.874" y="31.3203" width="29.345" height="30.3231" stroke="#E6E6E6" stroke-width="0.978166"/>
    <rect x="857.874" y="1" width="29.345" height="30.3231" stroke="#E6E6E6" stroke-width="0.978166"/>
    <rect x="918.52" y="61.6445" width="30.3231" height="30.3231" stroke="#E6E6E6" stroke-width="0.978166"/>
    <rect x="918.52" y="31.3203" width="30.3231" height="30.3231" stroke="#E6E6E6" stroke-width="0.978166"/>
    <rect x="918.52" y="1" width="30.3231" height="30.3231" stroke="#E6E6E6" stroke-width="0.978166"/>
    <rect x="948.843" y="61.6445" width="30.3231" height="30.3231" stroke="#E6E6E6" stroke-width="0.978166"/>
    <rect x="948.843" y="31.3203" width="30.3231" height="30.3231" stroke="#E6E6E6" stroke-width="0.978166"/>
    <rect x="948.843" y="1" width="30.3231" height="30.3231" stroke="#E6E6E6" stroke-width="0.978166"/>
    <rect x="1010.47" y="61.6445" width="29.345" height="30.3231" stroke="#E6E6E6" stroke-width="0.978166"/>
    <rect x="1010.47" y="31.3203" width="29.345" height="30.3231" stroke="#E6E6E6" stroke-width="0.978166"/>
    <rect x="1010.47" y="1" width="29.345" height="30.3231" stroke="#E6E6E6" stroke-width="0.978166"/>
    <rect x="1039.81" y="61.6445" width="31.3013" height="30.3231" stroke="#E6E6E6" stroke-width="0.978166"/>
    <rect x="1039.81" y="31.3203" width="31.3013" height="30.3231" stroke="#E6E6E6" stroke-width="0.978166"/>
    <rect x="1101.44" y="61.6445" width="30.3231" height="30.3231" stroke="#E6E6E6" stroke-width="0.978166"/>
    <rect x="1101.44" y="31.3203" width="30.3231" height="30.3231" stroke="#E6E6E6" stroke-width="0.978166"/>
    <rect x="1101.44" y="1" width="30.3231" height="30.3231" stroke="#E6E6E6" stroke-width="0.978166"/>
    <rect x="1131.76" y="61.6445" width="31.3013" height="30.3231" stroke="#E6E6E6" stroke-width="0.978166"/>
    <rect x="1131.76" y="31.3203" width="31.3013" height="30.3231" stroke="#E6E6E6" stroke-width="0.978166"/>
    <rect x="1131.76" y="1" width="31.3013" height="30.3231" stroke="#E6E6E6" stroke-width="0.978166"/>
    <rect x="1163.06" y="61.6445" width="29.345" height="30.3231" stroke="#E6E6E6" stroke-width="0.978166"/>
    <rect x="1163.06" y="31.3203" width="29.345" height="30.3231" stroke="#E6E6E6" stroke-width="0.978166"/>
    <rect x="1163.06" y="1" width="29.345" height="30.3231" stroke="#E6E6E6" stroke-width="0.978166"/>
    <rect x="1192.41" y="61.6445" width="31.3013" height="30.3231" stroke="#E6E6E6" stroke-width="0.978166"/>
    <rect x="1192.41" y="31.3203" width="31.3013" height="30.3231" stroke="#E6E6E6" stroke-width="0.978166"/>
    <rect x="1192.41" y="1" width="31.3013" height="30.3231" stroke="#E6E6E6" stroke-width="0.978166"/>
    <rect x="1223.71" y="61.6445" width="30.3231" height="30.3231" stroke="#E6E6E6" stroke-width="0.978166"/>
    <rect x="1223.71" y="31.3203" width="30.3231" height="30.3231" stroke="#E6E6E6" stroke-width="0.978166"/>
    <rect x="1254.03" y="61.6445" width="30.3231" height="30.3231" stroke="#E6E6E6" stroke-width="0.978166"/>
    <rect x="1254.03" y="31.3203" width="30.3231" height="30.3231" stroke="#E6E6E6" stroke-width="0.978166"/>
    <rect x="1254.03" y="1" width="30.3231" height="30.3231" stroke="#E6E6E6" stroke-width="0.978166"/>
    <rect x="1284.35" y="61.6445" width="31.3013" height="30.3231" stroke="#E6E6E6" stroke-width="0.978166"/>
    <rect x="1284.35" y="31.3203" width="31.3013" height="30.3231" stroke="#E6E6E6" stroke-width="0.978166"/>
    <rect x="1284.35" y="1" width="31.3013" height="30.3231" stroke="#E6E6E6" stroke-width="0.978166"/>
    <rect x="1315.65" y="61.6445" width="29.345" height="30.3231" stroke="#E6E6E6" stroke-width="0.978166"/>
    <rect x="1315.65" y="31.3203" width="29.345" height="30.3231" stroke="#E6E6E6" stroke-width="0.978166"/>
    <rect x="1315.65" y="1" width="29.345" height="30.3231" stroke="#E6E6E6" stroke-width="0.978166"/>
    <rect x="734.625" y="122.289" width="31.3013" height="31.3013" stroke="#E6E6E6" stroke-width="0.978166"/>
    <rect x="765.926" y="122.289" width="30.3231" height="31.3013" stroke="#E6E6E6" stroke-width="0.978166"/>
    <rect x="796.249" y="122.289" width="30.3231" height="31.3013" stroke="#E6E6E6" stroke-width="0.978166"/>
    <rect x="826.572" y="122.289" width="31.3013" height="31.3013" stroke="#E6E6E6" stroke-width="0.978166"/>
    <rect x="857.874" y="122.289" width="29.345" height="31.3013" stroke="#E6E6E6" stroke-width="0.978166"/>
    <rect x="887.218" y="122.289" width="31.3013" height="31.3013" stroke="#E6E6E6" stroke-width="0.978166"/>
    <rect x="918.52" y="122.289" width="30.3231" height="31.3013" stroke="#E6E6E6" stroke-width="0.978166"/>
    <rect x="948.843" y="122.289" width="30.3231" height="31.3013" stroke="#E6E6E6" stroke-width="0.978166"/>
    <rect x="979.166" y="122.289" width="31.3013" height="31.3013" stroke="#E6E6E6" stroke-width="0.978166"/>
    <rect x="1010.47" y="122.289" width="29.345" height="31.3013" stroke="#E6E6E6" stroke-width="0.978166"/>
    <rect x="1039.81" y="122.289" width="31.3013" height="31.3013" stroke="#E6E6E6" stroke-width="0.978166"/>
    <rect x="1071.11" y="122.289" width="30.3231" height="31.3013" stroke="#E6E6E6" stroke-width="0.978166"/>
    <rect x="1101.44" y="122.289" width="30.3231" height="31.3013" stroke="#E6E6E6" stroke-width="0.978166"/>
    <rect x="1131.76" y="122.289" width="31.3013" height="31.3013" stroke="#E6E6E6" stroke-width="0.978166"/>
    <rect x="1163.06" y="122.289" width="29.345" height="31.3013" stroke="#E6E6E6" stroke-width="0.978166"/>
    <rect x="1223.71" y="122.289" width="30.3231" height="31.3013" stroke="#E6E6E6" stroke-width="0.978166"/>
    <rect x="1254.03" y="122.289" width="30.3231" height="31.3013" stroke="#E6E6E6" stroke-width="0.978166"/>
    <rect x="1284.35" y="122.289" width="31.3013" height="31.3013" stroke="#E6E6E6" stroke-width="0.978166"/>
    <rect x="1315.65" y="122.289" width="29.345" height="31.3013" stroke="#E6E6E6" stroke-width="0.978166"/>
    <rect x="734.625" y="153.594" width="31.3013" height="29.345" stroke="#E6E6E6" stroke-width="0.978166"/>
    <rect x="765.926" y="153.594" width="30.3231" height="29.345" stroke="#E6E6E6" stroke-width="0.978166"/>
    <rect x="796.249" y="153.594" width="30.3231" height="29.345" stroke="#E6E6E6" stroke-width="0.978166"/>
    <rect x="826.572" y="153.594" width="31.3013" height="29.345" stroke="#E6E6E6" stroke-width="0.978166"/>
    <rect x="857.874" y="153.594" width="29.345" height="29.345" stroke="#E6E6E6" stroke-width="0.978166"/>
    <rect x="887.218" y="153.594" width="31.3013" height="29.345" stroke="#E6E6E6" stroke-width="0.978166"/>
    <rect x="948.843" y="153.594" width="30.3231" height="29.345" stroke="#E6E6E6" stroke-width="0.978166"/>
    <rect x="979.166" y="153.594" width="31.3013" height="29.345" stroke="#E6E6E6" stroke-width="0.978166"/>
    <rect x="1010.47" y="153.594" width="29.345" height="29.345" stroke="#E6E6E6" stroke-width="0.978166"/>
    <rect x="1071.11" y="153.594" width="30.3231" height="29.345" stroke="#E6E6E6" stroke-width="0.978166"/>
    <rect x="1131.76" y="153.594" width="31.3013" height="29.345" stroke="#E6E6E6" stroke-width="0.978166"/>
    <rect x="765.926" y="91.9688" width="30.3231" height="30.3231" stroke="#E6E6E6" stroke-width="0.978166"/>
    <rect x="887.218" y="91.9688" width="31.3013" height="30.3231" stroke="#E6E6E6" stroke-width="0.978166"/>
    <rect x="979.166" y="91.9688" width="31.3013" height="30.3231" stroke="#E6E6E6" stroke-width="0.978166"/>
    <rect x="1071.11" y="91.9688" width="30.3231" height="30.3231" stroke="#E6E6E6" stroke-width="0.978166"/>
    <rect x="1163.06" y="153.594" width="29.345" height="29.345" stroke="#E6E6E6" stroke-width="0.978166"/>
    <rect x="1192.41" y="153.594" width="31.3013" height="29.345" stroke="#E6E6E6" stroke-width="0.978166"/>
    <rect x="1223.71" y="153.594" width="30.3231" height="29.345" stroke="#E6E6E6" stroke-width="0.978166"/>
    <rect x="1254.03" y="153.594" width="30.3231" height="29.345" stroke="#E6E6E6" stroke-width="0.978166"/>
    <rect x="1284.35" y="153.594" width="31.3013" height="29.345" stroke="#E6E6E6" stroke-width="0.978166"/>
    <rect x="1315.65" y="153.594" width="29.345" height="29.345" stroke="#E6E6E6" stroke-width="0.978166"/>
    <rect x="734.625" y="182.938" width="31.3013" height="31.3013" stroke="#E6E6E6" stroke-width="0.978166"/>
    <rect x="765.926" y="182.938" width="30.3231" height="31.3013" stroke="#E6E6E6" stroke-width="0.978166"/>
    <rect x="796.249" y="182.938" width="30.3231" height="31.3013" stroke="#E6E6E6" stroke-width="0.978166"/>
    <rect x="857.874" y="182.938" width="29.345" height="31.3013" stroke="#E6E6E6" stroke-width="0.978166"/>
    <rect x="918.52" y="182.938" width="30.3231" height="31.3013" stroke="#E6E6E6" stroke-width="0.978166"/>
    <rect x="948.843" y="182.938" width="30.3231" height="31.3013" stroke="#E6E6E6" stroke-width="0.978166"/>
    <rect x="979.166" y="182.938" width="31.3013" height="31.3013" stroke="#E6E6E6" stroke-width="0.978166"/>
    <rect x="1010.47" y="182.938" width="29.345" height="31.3013" stroke="#E6E6E6" stroke-width="0.978166"/>
    <rect x="1039.81" y="182.938" width="31.3013" height="31.3013" stroke="#E6E6E6" stroke-width="0.978166"/>
    <rect x="1071.11" y="182.938" width="30.3231" height="31.3013" stroke="#E6E6E6" stroke-width="0.978166"/>
    <rect x="1131.76" y="182.938" width="31.3013" height="31.3013" stroke="#E6E6E6" stroke-width="0.978166"/>
    <rect x="1163.06" y="182.938" width="29.345" height="31.3013" stroke="#E6E6E6" stroke-width="0.978166"/>
    <rect x="1192.41" y="182.938" width="31.3013" height="31.3013" stroke="#E6E6E6" stroke-width="0.978166"/>
    <rect x="1223.71" y="182.938" width="30.3231" height="31.3013" stroke="#E6E6E6" stroke-width="0.978166"/>
    <rect x="1254.03" y="182.938" width="30.3231" height="31.3013" stroke="#E6E6E6" stroke-width="0.978166"/>
    <rect x="1315.65" y="182.938" width="29.345" height="31.3013" stroke="#E6E6E6" stroke-width="0.978166"/>
    <rect x="734.625" y="214.238" width="31.3013" height="30.3231" stroke="#E6E6E6" stroke-width="0.978166"/>
    <rect x="765.926" y="214.238" width="30.3231" height="30.3231" stroke="#E6E6E6" stroke-width="0.978166"/>
    <rect x="796.249" y="214.238" width="30.3231" height="30.3231" stroke="#E6E6E6" stroke-width="0.978166"/>
    <rect x="826.572" y="214.238" width="31.3013" height="30.3231" stroke="#E6E6E6" stroke-width="0.978166"/>
    <rect x="857.874" y="214.238" width="29.345" height="30.3231" stroke="#E6E6E6" stroke-width="0.978166"/>
    <rect x="887.218" y="214.238" width="31.3013" height="30.3231" stroke="#E6E6E6" stroke-width="0.978166"/>
    <rect x="948.843" y="214.238" width="30.3231" height="30.3231" stroke="#E6E6E6" stroke-width="0.978166"/>
    <rect x="979.166" y="214.238" width="31.3013" height="30.3231" stroke="#E6E6E6" stroke-width="0.978166"/>
    <rect x="1010.47" y="214.238" width="29.345" height="30.3231" stroke="#E6E6E6" stroke-width="0.978166"/>
    <rect x="1039.81" y="214.238" width="31.3013" height="30.3231" stroke="#E6E6E6" stroke-width="0.978166"/>
    <rect x="1071.11" y="214.238" width="30.3231" height="30.3231" stroke="#E6E6E6" stroke-width="0.978166"/>
    <rect x="1101.44" y="214.238" width="30.3231" height="30.3231" stroke="#E6E6E6" stroke-width="0.978166"/>
    <rect x="1163.06" y="214.238" width="29.345" height="30.3231" stroke="#E6E6E6" stroke-width="0.978166"/>
    <rect x="1223.71" y="214.238" width="30.3231" height="30.3231" stroke="#E6E6E6" stroke-width="0.978166"/>
    <rect x="1254.03" y="214.238" width="30.3231" height="30.3231" stroke="#E6E6E6" stroke-width="0.978166"/>
    <rect x="1284.35" y="214.238" width="31.3013" height="30.3231" stroke="#E6E6E6" stroke-width="0.978166"/>
    <rect x="765.926" y="61.6445" width="30.3231" height="30.3231" stroke="#E6E6E6" stroke-width="0.978166"/>
    <rect x="765.926" y="31.3203" width="30.3231" height="30.3231" stroke="#E6E6E6" stroke-width="0.978166"/>
    <rect x="765.926" y="1" width="30.3231" height="30.3231" stroke="#E6E6E6" stroke-width="0.978166"/>
    <rect x="887.218" y="31.3203" width="31.3013" height="30.3231" stroke="#E6E6E6" stroke-width="0.978166"/>
    <rect x="887.218" y="1" width="31.3013" height="30.3231" stroke="#E6E6E6" stroke-width="0.978166"/>
    <rect x="979.166" y="31.3203" width="31.3013" height="30.3231" stroke="#E6E6E6" stroke-width="0.978166"/>
    <rect x="979.166" y="1" width="31.3013" height="30.3231" stroke="#E6E6E6" stroke-width="0.978166"/>
    <rect x="1071.11" y="61.6445" width="30.3231" height="30.3231" stroke="#E6E6E6" stroke-width="0.978166"/>
    <rect x="1071.11" y="31.3203" width="30.3231" height="30.3231" stroke="#E6E6E6" stroke-width="0.978166"/>
    <rect x="1071.11" y="1" width="30.3231" height="30.3231" stroke="#E6E6E6" stroke-width="0.978166"/>
    <rect x="1192.41" y="122.289" width="31.3013" height="31.3013" stroke="#E6E6E6" stroke-width="0.978166"/>
    <rect x="918.52" y="153.594" width="30.3231" height="29.345" stroke="#E6E6E6" stroke-width="0.978166"/>
    <rect x="1039.81" y="153.594" width="31.3013" height="29.345" stroke="#E6E6E6" stroke-width="0.978166"/>
    <rect x="826.572" y="182.938" width="31.3013" height="31.3013" stroke="#E6E6E6" stroke-width="0.978166"/>
    <rect x="1101.44" y="182.938" width="30.3231" height="31.3013" stroke="#E6E6E6" stroke-width="0.978166"/>
    <rect x="1284.35" y="182.938" width="31.3013" height="31.3013" stroke="#E6E6E6" stroke-width="0.978166"/>
    <rect x="918.52" y="214.238" width="30.3231" height="30.3231" stroke="#E6E6E6" stroke-width="0.978166"/>
    <rect x="1131.76" y="214.238" width="31.3013" height="30.3231" stroke="#E6E6E6" stroke-width="0.978166"/>
    <rect x="1315.65" y="214.238" width="29.345" height="30.3231" stroke="#E6E6E6" stroke-width="0.978166"/>
    <rect x="703.323" y="31.3203" width="31.3013" height="30.3231" stroke="#7A3DFC" stroke-width="0.978166"/>
    <rect x="124.249" y="214.238" width="29.345" height="30.3231" stroke="#7A3DFC" stroke-width="0.978166"/>
    <rect x="458.782" y="122.289" width="31.3013" height="31.3013" stroke="#7A3DFC" stroke-width="0.978166"/>
    <rect x="1223.71" y="1" width="30.3231" height="30.3231" stroke="#7A3DFC" stroke-width="0.978166"/>
    <rect x="887.218" y="182.938" width="31.3013" height="31.3013" stroke="#7A3DFC" stroke-width="0.978166"/>
    <rect x="32.3013" y="153.594" width="30.3231" height="29.345" stroke="#4AA12C" stroke-width="0.978166"/>
    <rect x="703.323" y="122.289" width="31.3013" height="31.3013" stroke="#4AA12C" stroke-width="0.978166"/>
    <rect x="1192.41" y="214.238" width="31.3013" height="30.3231" stroke="#4AA12C" stroke-width="0.978166"/>
    <rect x="979.166" y="61.6445" width="31.3013" height="30.3231" stroke="#4AA12C" stroke-width="0.978166"/>
    <rect x="306.188" y="31.3203" width="31.3013" height="30.3231" stroke="#D84C4C" stroke-width="0.978166"/>
    <rect x="642.677" y="214.238" width="30.3231" height="30.3231" stroke="#D84C4C" stroke-width="0.978166"/>
    <rect x="1101.44" y="153.594" width="30.3231" height="29.345" stroke="#D84C4C" stroke-width="0.978166"/>
    <rect x="184.895" y="122.289" width="30.3231" height="31.3013" stroke="#F1DF38" stroke-width="0.978166"/>
    <rect x="337.489" y="214.238" width="30.3231" height="30.3231" stroke="#F1DF38" stroke-width="0.978166"/>
    <rect x="1315.65" y="91.9688" width="29.345" height="30.3231" stroke="#F1DF38" stroke-width="0.978166"/>
    <rect x="1039.81" y="1" width="31.3013" height="30.3231" stroke="#F1DF38" stroke-width="0.978166"/>
    <rect x="887.218" y="61.6445" width="31.3013" height="30.3231" stroke="#F1DF38" stroke-width="0.978166"/>
</svg>
